<svg width="343" height="276" viewBox="0 0 343 276" fill="none" xmlns="http://www.w3.org/2000/svg">
<g clip-path="url(#clip0_18718_72611)">
<path d="M179.884 180.609C180.603 181.309 181.362 181.967 182.158 182.578C202.734 196.579 225.761 206.585 250.037 212.071C257.73 213.945 265.695 214.428 273.558 213.497C287.134 211.291 295.279 198.937 294.465 184.716C293.718 171.14 283.468 161.399 268.772 159.125C260.614 157.869 252.599 155.811 244.845 152.982C235.715 149.588 227.094 144.972 217.693 140.662C207.294 155.936 194.492 169.426 179.782 180.609M242.469 172.871C243.157 172.843 243.842 172.963 244.479 173.224C245.116 173.485 245.69 173.88 246.16 174.382C246.631 174.885 246.987 175.483 247.205 176.136C247.423 176.789 247.498 177.481 247.424 178.166C247.381 179.526 246.819 180.818 245.854 181.778C244.888 182.737 243.592 183.29 242.231 183.324C239.143 182.68 237.174 181.05 237.276 177.86C237.233 177.176 237.339 176.491 237.588 175.852C237.837 175.213 238.222 174.637 238.716 174.162C239.21 173.687 239.802 173.325 240.45 173.102C241.098 172.88 241.787 172.801 242.469 172.871ZM231.031 163.503C231.914 163.503 233.577 165.302 233.407 165.879C233.228 166.532 232.893 167.133 232.432 167.629C231.972 168.125 231.398 168.503 230.76 168.73C229.877 168.73 228.689 167.373 226.755 165.947C228.791 164.691 229.945 163.47 231.031 163.503ZM219.118 177.079C220.035 177.079 221.256 178.403 223.191 179.761C221.222 181.05 220.136 182.34 219.05 182.34C217.964 182.34 216.471 180.643 216.607 179.998C216.765 179.348 217.076 178.745 217.512 178.238C217.949 177.73 218.499 177.333 219.118 177.079ZM217.455 65.3494C209.461 65.0668 201.565 67.1827 194.783 71.4246C183.622 78.6035 174.263 88.2537 167.428 99.6287C157.313 115.317 143.697 128.445 127.65 137.981C110.002 148.943 91.5043 157.53 70.4616 160.211C54.2044 162.248 44.2939 179.93 49.5546 195.543C54.2722 209.492 67.2033 216.45 83.2569 214.04C103.849 210.656 123.708 203.769 141.973 193.676C165.731 181.05 187.317 165.37 204.117 143.886C217.432 127.466 224.853 107.054 225.193 85.9169C224.583 82.523 223.564 75.735 222.478 69.3882C222.037 66.6052 220.476 65.5191 217.557 65.4851M96.6292 194.457C95.9583 194.559 95.2733 194.516 94.6207 194.329C93.9682 194.143 93.3636 193.818 92.8481 193.377C92.3326 192.935 91.9184 192.388 91.6338 191.772C91.3492 191.156 91.2008 190.486 91.1988 189.807C91.1226 189.097 91.1966 188.379 91.416 187.7C91.6354 187.02 91.9953 186.395 92.4722 185.863C92.9491 185.332 93.5323 184.907 94.1842 184.616C94.836 184.324 95.5419 184.174 96.2559 184.173C97.6364 184.146 98.9717 184.666 99.97 185.619C100.968 186.573 101.549 187.884 101.584 189.264C101.612 189.933 101.504 190.601 101.268 191.228C101.031 191.855 100.671 192.427 100.209 192.912C99.7465 193.397 99.1912 193.783 98.5762 194.048C97.9612 194.314 97.299 194.453 96.6292 194.457ZM105.42 178.946C103.926 176.91 102.433 175.756 102.535 174.772C102.637 173.787 104.198 172.43 105.352 172.056C105.929 172.056 107.761 173.55 107.795 174.432C107.829 175.315 106.641 176.774 105.42 178.946ZM125.784 161.773C124.777 163.935 123.425 165.918 121.779 167.644H119.674C118.283 165.71 116.111 163.877 115.737 161.739C115.624 161.069 115.663 160.382 115.852 159.73C116.04 159.077 116.374 158.476 116.827 157.97C117.281 157.465 117.842 157.068 118.471 156.809C119.099 156.551 119.777 156.438 120.455 156.478C123.34 156.274 126.53 159.057 125.784 161.739M141.396 175.111C140.719 175.167 140.038 175.083 139.395 174.863C138.753 174.643 138.163 174.292 137.662 173.833C137.162 173.374 136.762 172.817 136.487 172.195C136.213 171.574 136.07 170.903 136.067 170.224C136.025 169.514 136.13 168.802 136.374 168.134C136.618 167.466 136.997 166.856 137.488 166.34C137.978 165.825 138.568 165.415 139.223 165.138C139.878 164.86 140.583 164.719 141.294 164.725C141.999 164.755 142.69 164.926 143.328 165.227C143.966 165.528 144.537 165.954 145.008 166.478C145.479 167.003 145.84 167.617 146.071 168.283C146.302 168.95 146.397 169.656 146.351 170.359C146.342 170.998 146.207 171.629 145.952 172.215C145.697 172.8 145.329 173.33 144.868 173.772C144.407 174.214 143.862 174.56 143.266 174.79C142.67 175.02 142.034 175.129 141.396 175.111ZM159.045 162.485C157.755 160.551 156.329 159.329 156.499 158.311C156.703 157.686 157.068 157.125 157.556 156.684C158.044 156.244 158.639 155.938 159.282 155.799C159.917 155.999 160.488 156.361 160.94 156.849C161.392 157.337 161.71 157.934 161.862 158.582C161.862 159.566 160.436 160.653 159.045 162.485ZM159.045 126.136C158.97 124.802 159.423 123.492 160.305 122.488C161.188 121.485 162.43 120.869 163.762 120.773C167.156 121.045 169.193 122.742 169.362 125.864C169.457 126.54 169.402 127.228 169.203 127.88C169.003 128.532 168.664 129.133 168.208 129.641C167.752 130.148 167.191 130.55 166.564 130.818C165.937 131.086 165.259 131.214 164.577 131.193C163.874 131.277 163.161 131.207 162.487 130.989C161.814 130.77 161.196 130.408 160.676 129.927C160.156 129.446 159.747 128.858 159.477 128.203C159.207 127.549 159.083 126.843 159.113 126.136M172.994 153.491C172.318 153.503 171.647 153.367 171.028 153.095C170.409 152.823 169.857 152.419 169.409 151.913C168.96 151.407 168.627 150.809 168.431 150.162C168.236 149.514 168.183 148.832 168.276 148.163C168.227 147.445 168.33 146.725 168.578 146.049C168.826 145.373 169.213 144.758 169.715 144.242C170.217 143.726 170.821 143.321 171.49 143.054C172.158 142.788 172.875 142.665 173.594 142.693C174.313 142.722 175.018 142.902 175.663 143.221C176.308 143.541 176.878 143.992 177.337 144.546C177.796 145.101 178.133 145.746 178.326 146.439C178.519 147.132 178.564 147.858 178.458 148.57C178.477 149.26 178.348 149.946 178.079 150.581C177.81 151.217 177.408 151.787 176.899 152.253C176.391 152.72 175.788 153.072 175.132 153.286C174.476 153.499 173.781 153.569 173.096 153.491M181.886 113.985C180.766 111.881 179.578 110.591 179.646 109.539C179.714 108.487 181.581 107.028 182.158 107.197C183.278 107.605 184.737 108.962 184.805 110.014C184.873 111.066 183.346 112.085 181.886 113.985ZM341.777 113.239C340.851 92.9126 334.485 73.2079 323.345 56.1815C312.205 39.155 296.699 25.431 278.445 16.442C245.422 -0.527922 211.142 -4.46494 175.879 8.53403C135.151 23.5015 112.547 64.8742 119.03 100.817C120.445 109.886 123.517 118.618 128.091 126.577C134.879 120.875 141.667 115.92 147.369 110.116C152.287 104.783 156.909 99.1861 161.217 93.3498C166.104 87.2745 170.686 80.9617 175.845 75.158C191.287 57.7469 210.735 52.5201 232.932 57.9844C259.133 64.3991 278.988 78.3484 285.165 106.485C288.024 119.986 287.453 133.989 283.502 147.212C283.13 147.983 282.917 148.82 282.876 149.675C282.836 150.53 282.968 151.384 283.266 152.186C283.564 152.988 284.022 153.722 284.61 154.343C285.199 154.964 285.907 155.459 286.692 155.799C293.938 160.313 299.387 167.206 302.109 175.297C304.83 183.388 304.653 192.173 301.608 200.148C298.564 208.122 292.841 214.79 285.42 219.009C277.999 223.228 269.342 224.735 260.932 223.272C248.816 221.066 237.005 217.434 225.024 214.617C222.347 213.868 219.53 213.775 216.81 214.345C187.193 222.865 155.774 222.865 126.157 214.345C123.433 213.734 120.6 213.804 117.909 214.549C105.589 217.4 93.4388 221.337 81.0168 223.407C72.4737 224.718 63.7423 222.967 56.3645 218.465C48.9868 213.963 43.4373 206.998 40.6962 198.801C37.8742 190.82 37.9346 182.103 40.8668 174.162C43.7991 166.22 49.4183 159.556 56.7498 155.324C57.4407 155.064 58.0677 154.66 58.5887 154.137C59.1097 153.614 59.5124 152.986 59.7698 152.294C60.0272 151.602 60.1332 150.864 60.0806 150.127C60.0281 149.391 59.8182 148.675 59.4651 148.027C56.1778 137.127 55.1499 125.67 56.4444 114.359C56.8559 106.564 58.8778 98.9386 62.3826 91.9639C65.8875 84.9893 70.7992 78.8164 76.8083 73.8344C86.3819 65.9392 97.7238 60.4779 109.866 57.9165C111.342 57.6865 112.728 57.0598 113.876 56.1033C115.023 55.1469 115.89 53.8967 116.382 52.4862C120.394 42.324 126.433 33.0855 134.133 25.3343C141.464 18.2408 149.609 11.962 157.314 5.37762C157.314 5.37762 157.076 5.14005 156.635 4.97035C155.345 4.56307 154.055 4.18973 152.732 3.88427C132.673 -0.684153 111.79 -0.170843 91.9794 5.37762C58.6844 14.7111 31.6683 32.7671 14.7662 63.6524C1.56362 87.8176 -1.55884 113.951 1.83515 140.967C5.72387 174.787 21.3348 206.177 45.957 229.686C75.6204 258.467 112.208 271.534 152.63 274.826C176.961 277.043 201.491 275.08 225.159 269.023C258.149 260.3 286.557 244.009 308.176 217.298C332.406 188.184 344.412 150.814 341.675 113.035M158.841 55.3032C158.221 55.0666 157.673 54.6733 157.251 54.1617C156.829 53.6501 156.546 53.0377 156.431 52.3843C156.652 51.7664 157.027 51.2147 157.519 50.7813C158.012 50.3479 158.607 50.0469 159.248 49.9067C160.199 49.9067 161.217 51.434 162.914 52.8934C161.013 54.0813 159.757 55.5068 158.841 55.3032ZM171.636 40.2339C170.959 40.3107 170.274 40.243 169.625 40.0354C168.976 39.8279 168.378 39.4851 167.872 39.0296C167.365 38.5742 166.96 38.0165 166.685 37.3934C166.41 36.7702 166.269 36.0957 166.274 35.4144C166.195 34.7363 166.264 34.0491 166.476 33.4002C166.688 32.7513 167.039 32.1563 167.503 31.6561C167.968 31.1559 168.536 30.7626 169.167 30.5032C169.799 30.2438 170.479 30.1246 171.161 30.1537C171.841 30.0623 172.534 30.1227 173.188 30.3304C173.842 30.5382 174.442 30.8883 174.945 31.3555C175.448 31.8228 175.841 32.3955 176.097 33.0328C176.352 33.67 176.463 34.3558 176.422 35.0411C176.519 35.7106 176.466 36.3933 176.266 37.0396C176.066 37.6859 175.724 38.2794 175.266 38.7769C174.807 39.2744 174.243 39.6633 173.615 39.9154C172.988 40.1674 172.312 40.2762 171.636 40.2339ZM181.818 50.4158C180.664 50.1104 179.069 48.9564 178.899 47.9382C178.73 46.92 180.155 45.7321 181.445 43.7297C182.735 45.6982 183.99 46.7503 184.024 47.9043C184.058 49.0582 182.361 50.5516 181.818 50.4158ZM201.232 44.0691C199.739 42.1006 198.211 40.9805 198.313 40.0302C198.415 39.0799 199.942 37.7223 201.062 37.3829C201.639 37.3829 203.438 38.8084 203.472 39.6569C203.506 40.5054 202.386 41.9648 201.232 44.0691ZM215.86 36.6362C215.171 36.6596 214.484 36.5346 213.847 36.2699C213.21 36.0051 212.637 35.6067 212.168 35.1015C211.698 34.5964 211.342 33.9963 211.124 33.3418C210.906 32.6873 210.832 31.9936 210.905 31.3077C210.92 30.6391 211.067 29.9802 211.338 29.3685C211.608 28.7568 211.996 28.2043 212.48 27.7426C213.457 26.8102 214.764 26.304 216.115 26.3355C216.783 26.3511 217.442 26.4982 218.054 26.7685C218.665 27.0387 219.218 27.4268 219.68 27.9106C220.141 28.3944 220.503 28.9644 220.745 29.588C220.986 30.2116 221.102 30.8767 221.087 31.5453C220.781 34.9393 218.982 36.772 215.86 36.6362ZM230.386 44.68C229.538 44.68 227.739 43.0848 227.841 42.44C228.013 41.7948 228.332 41.1984 228.774 40.6978C229.215 40.1971 229.768 39.8059 230.386 39.5551C231.235 39.3175 232.524 40.743 234.459 41.9648C232.626 43.3903 231.608 44.7479 230.522 44.8158M232.694 23.9767C231.744 23.9767 230.081 22.4833 229.877 21.4312C229.674 20.379 231.099 19.2251 232.355 17.2566C233.78 19.0893 235.341 20.1754 235.274 21.1597C235.124 21.8123 234.808 22.4149 234.356 22.9086C233.904 23.4024 233.331 23.7704 232.694 23.9767ZM248.273 40.3018C247.39 40.3018 245.727 38.5029 245.897 37.892C246.069 37.2461 246.393 36.6506 246.842 36.1548C247.29 35.659 247.851 35.2772 248.476 35.0411C249.393 35.0411 250.546 36.3987 252.515 37.8581C250.479 39.1139 249.359 40.3357 248.273 40.3018ZM251.972 28.4228C251.29 28.4827 250.603 28.39 249.961 28.1516C249.32 27.9132 248.739 27.535 248.261 27.0444C247.784 26.5538 247.421 25.9631 247.2 25.3151C246.979 24.6671 246.905 23.9781 246.983 23.2979C246.996 22.6248 247.142 21.961 247.412 21.3442C247.682 20.7275 248.07 20.17 248.556 19.7035C249.041 19.2371 249.614 18.8708 250.24 18.6257C250.867 18.3805 251.536 18.2613 252.21 18.2748C252.878 18.2904 253.537 18.4375 254.149 18.7078C254.761 18.978 255.313 19.3661 255.775 19.8499C256.236 20.3337 256.598 20.9036 256.84 21.5273C257.081 22.1509 257.197 22.816 257.182 23.4845C257.166 24.1531 257.019 24.812 256.749 25.4237C256.479 26.0354 256.09 26.5879 255.607 27.0496C255.123 27.5113 254.553 27.8732 253.929 28.1147C253.306 28.3561 252.641 28.4723 251.972 28.4567M262.358 48.8207C261.645 48.9253 260.919 48.8786 260.225 48.6837C259.532 48.4887 258.888 48.1498 258.334 47.6891C257.781 47.2284 257.331 46.6563 257.013 46.0099C256.695 45.3636 256.518 44.6576 256.491 43.9379C256.465 43.2183 256.591 42.5011 256.86 41.8333C257.129 41.1654 257.536 40.5618 258.055 40.0618C258.573 39.5618 259.191 39.1767 259.868 38.9315C260.545 38.6863 261.266 38.5865 261.984 38.6387C262.663 38.578 263.346 38.6577 263.992 38.873C264.639 39.0883 265.233 39.4344 265.74 39.8898C266.246 40.3453 266.653 40.9002 266.936 41.52C267.218 42.1398 267.369 42.8111 267.381 43.4921C267.417 44.1775 267.315 44.8632 267.08 45.508C266.845 46.1528 266.482 46.7434 266.013 47.2443C265.543 47.7453 264.978 48.1461 264.35 48.4228C263.721 48.6996 263.044 48.8464 262.358 48.8546M272.064 64.1276C271.046 64.1276 269.96 62.6342 268.06 61.1748C270.062 59.9529 271.454 58.5953 272.302 58.765C273.151 58.9347 274.169 60.5978 275.085 61.5821C274.067 62.4984 273.083 64.0597 272.064 64.1276ZM280.685 40.3696C280.142 40.3696 278.309 38.9102 278.241 38.0278C278.174 37.1453 279.361 35.7199 280.515 33.5817C281.975 35.5162 283.468 36.6702 283.366 37.6205C283.167 38.2573 282.82 38.8381 282.355 39.3158C281.889 39.7935 281.317 40.1545 280.685 40.3696ZM83.3248 49.737C81.7636 47.7346 80.2363 46.6146 80.3381 45.6303C80.4399 44.6461 82.035 43.5939 82.9514 42.5757C83.8678 43.4242 85.3951 44.2388 85.4629 45.1552C85.5308 46.0715 84.4448 47.497 83.3248 49.737ZM82.2726 25.1306C82.9494 25.1152 83.6222 25.2406 84.2481 25.4988C84.874 25.757 85.4394 26.1424 85.9084 26.6306C86.3775 27.1188 86.74 27.6992 86.973 28.3349C87.206 28.9706 87.3042 29.6477 87.2617 30.3234C87.2996 31.0092 87.1884 31.695 86.9358 32.3336C86.6831 32.9722 86.2951 33.5484 85.7983 34.0226C85.3015 34.4968 84.7078 34.8577 84.0581 35.0804C83.4085 35.3031 82.7183 35.3823 82.0351 35.3126C81.3532 35.3654 80.6679 35.2682 80.0276 35.0278C79.3872 34.7875 78.8073 34.4098 78.3285 33.9214C77.8497 33.4329 77.4838 32.8455 77.2564 32.2005C77.0289 31.5554 76.9455 30.8684 77.0119 30.1877C76.9913 29.5005 77.1149 28.8166 77.3748 28.1801C77.6346 27.5436 78.0249 26.9686 78.5205 26.4922C79.0162 26.0157 79.6061 25.6484 80.2523 25.4139C80.8986 25.1794 81.5868 25.0829 82.2726 25.1306ZM72.5319 58.1541C72.5566 58.8202 72.442 59.4841 72.1952 60.1033C71.9485 60.7225 71.5751 61.2833 71.099 61.7498C70.6229 62.2164 70.0546 62.5782 69.4305 62.8124C68.8064 63.0465 68.1403 63.1476 67.4748 63.1093C66.793 63.142 66.1124 63.023 65.4821 62.7609C64.8518 62.4989 64.2875 62.1003 63.8298 61.5939C63.3721 61.0875 63.0324 60.4859 62.8351 59.8324C62.6379 59.1789 62.5882 58.4898 62.6893 57.8147C62.662 57.1772 62.7606 56.5406 62.9796 55.9413C63.1986 55.342 63.5337 54.7917 63.9656 54.322C64.3975 53.8523 64.9177 53.4724 65.4965 53.2039C66.0754 52.9355 66.7015 52.7839 67.3391 52.7577C71.0046 53.165 72.7016 55.0656 72.7016 58.1202M65.167 38.5029C66.287 38.5029 67.3051 39.8266 69.2737 41.1842C67.2033 42.44 65.8797 43.7976 64.9633 43.5939C64.3661 43.3098 63.8416 42.893 63.4299 42.3754C63.0182 41.8578 62.73 41.2531 62.5875 40.6072C62.5875 40.0642 64.2845 38.4351 65.167 38.5029ZM49.7243 68.3022C50.37 68.4345 50.9749 68.7192 51.4885 69.1324C52.0021 69.5456 52.4096 70.0755 52.6771 70.6779C52.8468 71.6622 51.4552 72.884 50.1655 74.9204C48.8079 72.9858 47.5182 71.8998 47.4842 70.8137C47.4503 69.7276 49.1133 68.1664 49.7243 68.3022ZM28.1046 79.2308C31.4986 79.2308 32.8562 81.3011 33.2974 84.4575C32.8901 87.4103 31.3289 89.5825 28.1385 89.5485C27.4536 89.5953 26.7666 89.4931 26.1249 89.249C25.4832 89.0048 24.9021 88.6245 24.4215 88.1342C23.9408 87.6439 23.5722 87.0553 23.3408 86.4089C23.1095 85.7624 23.021 85.0736 23.0815 84.3897C23.0097 83.7063 23.0892 83.0154 23.3142 82.3662C23.5393 81.7169 23.9044 81.1252 24.3838 80.6328C24.8632 80.1405 25.445 79.7597 26.088 79.5174C26.7311 79.2751 27.4195 79.1772 28.1046 79.2308ZM22.6742 119.144C22.6375 118.449 22.7549 117.755 23.0179 117.111C23.2809 116.468 23.683 115.89 24.1955 115.419C24.7079 114.949 25.3181 114.598 25.9821 114.391C26.6462 114.184 27.3478 114.127 28.0367 114.223C31.4307 114.223 32.8222 116.395 32.8901 119.721C32.9074 120.394 32.777 121.064 32.5082 121.681C32.2394 122.299 31.8386 122.85 31.3341 123.297C30.8295 123.743 30.2334 124.073 29.5876 124.265C28.9417 124.456 28.2618 124.504 27.5955 124.405C26.9073 124.429 26.2221 124.304 25.5865 124.039C24.951 123.774 24.3801 123.375 23.9129 122.869C23.4458 122.363 23.0932 121.762 22.8795 121.108C22.6657 120.453 22.5957 119.76 22.6742 119.076M31.3967 138.32C30.757 138.143 30.1684 137.817 29.6788 137.368C29.1892 136.92 28.8126 136.362 28.5797 135.741C28.5797 134.824 29.9373 133.67 31.3628 131.736C32.5846 133.772 33.8065 134.892 33.7726 136.012C33.7386 137.132 31.9737 138.49 31.3967 138.32ZM35.198 102.615C35.1283 101.927 35.2134 101.231 35.4468 100.579C35.6802 99.9277 36.0562 99.3364 36.5473 98.8485C37.0384 98.3607 37.6322 97.9886 38.2854 97.7596C38.9386 97.5305 39.6347 97.4501 40.323 97.5244C43.5472 97.5244 45.1424 99.4929 45.7194 102.446C45.2782 105.534 43.6491 107.672 40.5266 107.706C39.8403 107.777 39.1471 107.697 38.4948 107.472C37.8426 107.247 37.2471 106.883 36.7497 106.405C36.2523 105.927 35.865 105.347 35.6146 104.704C35.3642 104.061 35.2568 103.372 35.2998 102.683M116.314 237.9C116.437 237.256 116.711 236.65 117.112 236.131C117.512 235.612 118.03 235.195 118.622 234.913C119.607 234.709 120.896 236.033 123 237.221C121.066 238.646 120.048 239.936 118.928 240.038C117.808 240.14 116.213 238.511 116.314 237.9ZM125.919 254.225C125.243 254.291 124.561 254.215 123.916 254.001C123.271 253.787 122.678 253.44 122.176 252.983C121.674 252.525 121.273 251.967 121 251.345C120.727 250.723 120.587 250.051 120.591 249.371C120.534 248.662 120.626 247.949 120.86 247.277C121.094 246.605 121.466 245.989 121.951 245.469C122.437 244.948 123.025 244.535 123.679 244.254C124.333 243.973 125.038 243.832 125.75 243.839C127.16 243.892 128.493 244.499 129.458 245.529C130.424 246.558 130.945 247.926 130.908 249.337C130.849 250.632 130.301 251.856 129.375 252.763C128.45 253.669 127.215 254.192 125.919 254.225ZM141.158 240.649C138.239 240.445 135.999 239.189 135.898 235.897C135.804 235.22 135.859 234.531 136.058 233.877C136.257 233.223 136.596 232.62 137.051 232.11C137.506 231.6 138.067 231.195 138.694 230.923C139.321 230.651 140 230.518 140.683 230.535C141.352 230.504 142.02 230.604 142.649 230.831C143.279 231.058 143.858 231.407 144.353 231.858C144.847 232.309 145.249 232.852 145.533 233.458C145.818 234.064 145.981 234.72 146.012 235.388C146.043 236.057 145.942 236.725 145.715 237.354C145.488 237.984 145.139 238.563 144.689 239.058C144.238 239.552 143.694 239.954 143.088 240.238C142.483 240.523 141.827 240.686 141.158 240.717M180.8 260.164C179.437 260.165 178.128 259.633 177.151 258.682C176.175 257.731 175.609 256.436 175.573 255.073C175.737 253.859 176.327 252.742 177.238 251.923C178.15 251.104 179.324 250.636 180.549 250.603C181.774 250.571 182.971 250.975 183.925 251.744C184.879 252.514 185.528 253.598 185.755 254.802C185.755 257.992 183.787 259.621 180.698 260.164M204.456 242.38C203.204 242.258 202.04 241.679 201.187 240.754C200.334 239.829 199.851 238.623 199.83 237.364C199.809 236.106 200.251 234.884 201.073 233.932C201.895 232.979 203.039 232.362 204.286 232.198C204.934 232.152 205.584 232.235 206.199 232.443C206.814 232.651 207.381 232.98 207.868 233.41C208.355 233.839 208.751 234.362 209.033 234.946C209.316 235.531 209.479 236.165 209.513 236.814C209.276 240.208 207.646 242.346 204.456 242.414M225.77 246.894C224.752 246.894 223.395 245.299 223.055 244.179C222.716 243.059 224.413 241.667 225.261 241.633C226.11 241.599 227.603 242.753 229.64 243.873C227.841 245.366 226.755 246.928 225.77 246.894ZM321.311 89.7522C322.499 91.6867 323.891 92.9425 323.721 93.9268C323.551 94.911 321.922 95.7595 320.938 96.642C320.021 95.6577 318.494 94.6734 318.426 93.6213C318.358 92.5692 319.886 91.551 321.311 89.7522ZM308.923 73.495C309.599 73.4858 310.269 73.6122 310.895 73.8665C311.521 74.1208 312.09 74.4979 312.567 74.9757C313.045 75.4534 313.422 76.022 313.676 76.6479C313.931 77.2738 314.057 77.9443 314.048 78.6199C313.957 79.9544 313.377 81.2084 312.419 82.1416C311.461 83.0748 310.192 83.6215 308.855 83.6769C308.141 83.693 307.431 83.5597 306.772 83.2854C306.112 83.0111 305.517 82.602 305.025 82.0843C304.533 81.5666 304.155 80.9517 303.914 80.2791C303.674 79.6065 303.576 78.8911 303.628 78.1787C303.634 77.512 303.779 76.8538 304.055 76.247C304.331 75.6401 304.732 75.0982 305.232 74.6565C305.731 74.2147 306.318 73.883 306.954 73.6829C307.59 73.4828 308.261 73.4187 308.923 73.495ZM290.969 78.0768C290.154 78.0768 289.204 76.6174 288.288 75.8029C289.238 74.7847 289.985 73.3253 291.139 72.9519C292.293 72.5786 293.107 74.1059 295.008 75.3277C293.141 76.6853 292.089 78.009 290.969 78.0768ZM299.759 101.292C299.076 101.364 298.385 101.284 297.736 101.059C297.087 100.834 296.495 100.469 296.003 99.9894C295.51 99.51 295.129 98.9282 294.887 98.2852C294.645 97.6421 294.547 96.9537 294.601 96.2686C294.567 95.5926 294.675 94.9169 294.916 94.2846C295.157 93.6522 295.528 93.0769 296.003 92.5951C296.478 92.1133 297.049 91.7355 297.678 91.4857C298.307 91.2358 298.981 91.1194 299.658 91.1437C303.052 91.3813 304.918 93.0104 304.884 96.2686C304.943 96.9519 304.85 97.6399 304.612 98.283C304.374 98.9262 303.996 99.5087 303.506 99.9888C303.017 100.469 302.427 100.835 301.779 101.06C301.131 101.285 300.441 101.364 299.759 101.292ZM306.547 126.916C305.902 126.916 304.307 125.253 304.375 124.405C304.443 123.556 305.733 122.3 307.09 120.434C308.346 122.436 309.738 123.828 309.534 124.608C309.257 125.204 308.841 125.724 308.321 126.126C307.802 126.527 307.193 126.798 306.547 126.916ZM314.218 113.035C313.556 113.091 312.89 113.003 312.265 112.776C311.641 112.549 311.073 112.189 310.602 111.72C310.13 111.252 309.767 110.687 309.535 110.064C309.304 109.442 309.211 108.776 309.262 108.114C309.262 104.72 311.095 102.785 314.286 102.819C314.965 102.753 315.65 102.84 316.291 103.074C316.931 103.309 317.511 103.684 317.987 104.173C318.463 104.662 318.823 105.252 319.04 105.899C319.257 106.546 319.326 107.233 319.241 107.91C319.301 108.589 319.214 109.274 318.984 109.916C318.755 110.559 318.388 111.143 317.911 111.631C317.434 112.118 316.856 112.496 316.218 112.738C315.581 112.98 314.898 113.082 314.218 113.035ZM323.28 135.333C322.6 135.396 321.915 135.308 321.273 135.076C320.631 134.844 320.048 134.474 319.565 133.991C319.082 133.508 318.712 132.925 318.48 132.283C318.248 131.641 318.16 130.956 318.223 130.276C318.176 129.605 318.268 128.931 318.492 128.297C318.717 127.662 319.069 127.08 319.527 126.587C319.985 126.094 320.539 125.7 321.155 125.43C321.772 125.16 322.437 125.019 323.11 125.016C326.266 125.423 328.269 126.984 328.303 130.175C328.369 130.857 328.285 131.545 328.058 132.191C327.83 132.838 327.465 133.427 326.987 133.918C326.509 134.409 325.93 134.79 325.289 135.035C324.649 135.279 323.963 135.381 323.28 135.333Z" fill="white"/>
</g>
<defs>
<clipPath id="clip0_18718_72611">
<rect width="341.333" height="274.981" fill="white" transform="translate(0.765625 0.866211)"/>
</clipPath>
</defs>
</svg>
